<?xml version="1.0" encoding="UTF-8" standalone="no"?>
<!-- Created with Inkscape (http://www.inkscape.org/) -->

<svg
   xmlns:dc="http://purl.org/dc/elements/1.1/"
   xmlns:cc="http://creativecommons.org/ns#"
   xmlns:rdf="http://www.w3.org/1999/02/22-rdf-syntax-ns#"
   xmlns:svg="http://www.w3.org/2000/svg"
   xmlns="http://www.w3.org/2000/svg"
   xmlns:xlink="http://www.w3.org/1999/xlink"
   xmlns:sodipodi="http://sodipodi.sourceforge.net/DTD/sodipodi-0.dtd"
   xmlns:inkscape="http://www.inkscape.org/namespaces/inkscape"
   width="210mm"
   height="297mm"
   id="svg2"
   version="1.1"
   inkscape:version="0.47 r22583"
   sodipodi:docname="Neues Dokument 1">
  <defs
     id="defs4">
    <inkscape:perspective
       sodipodi:type="inkscape:persp3d"
       inkscape:vp_x="0 : 526.18109 : 1"
       inkscape:vp_y="0 : 1000 : 0"
       inkscape:vp_z="744.09448 : 526.18109 : 1"
       inkscape:persp3d-origin="372.04724 : 350.78739 : 1"
       id="perspective10" />
    <inkscape:perspective
       id="perspective2824"
       inkscape:persp3d-origin="0.5 : 0.33333333 : 1"
       inkscape:vp_z="1 : 0.5 : 1"
       inkscape:vp_y="0 : 1000 : 0"
       inkscape:vp_x="0 : 0.5 : 1"
       sodipodi:type="inkscape:persp3d" />
    <inkscape:perspective
       id="perspective2838"
       inkscape:persp3d-origin="0.5 : 0.33333333 : 1"
       inkscape:vp_z="1 : 0.5 : 1"
       inkscape:vp_y="0 : 1000 : 0"
       inkscape:vp_x="0 : 0.5 : 1"
       sodipodi:type="inkscape:persp3d" />
    <inkscape:perspective
       id="perspective2852"
       inkscape:persp3d-origin="0.5 : 0.33333333 : 1"
       inkscape:vp_z="1 : 0.5 : 1"
       inkscape:vp_y="0 : 1000 : 0"
       inkscape:vp_x="0 : 0.5 : 1"
       sodipodi:type="inkscape:persp3d" />
    <inkscape:perspective
       id="perspective2870"
       inkscape:persp3d-origin="0.5 : 0.33333333 : 1"
       inkscape:vp_z="1 : 0.5 : 1"
       inkscape:vp_y="0 : 1000 : 0"
       inkscape:vp_x="0 : 0.5 : 1"
       sodipodi:type="inkscape:persp3d" />
    <inkscape:perspective
       id="perspective2884"
       inkscape:persp3d-origin="0.5 : 0.33333333 : 1"
       inkscape:vp_z="1 : 0.5 : 1"
       inkscape:vp_y="0 : 1000 : 0"
       inkscape:vp_x="0 : 0.5 : 1"
       sodipodi:type="inkscape:persp3d" />
    <inkscape:perspective
       id="perspective2900"
       inkscape:persp3d-origin="0.5 : 0.33333333 : 1"
       inkscape:vp_z="1 : 0.5 : 1"
       inkscape:vp_y="0 : 1000 : 0"
       inkscape:vp_x="0 : 0.5 : 1"
       sodipodi:type="inkscape:persp3d" />
    <inkscape:perspective
       id="perspective2916"
       inkscape:persp3d-origin="0.5 : 0.33333333 : 1"
       inkscape:vp_z="1 : 0.5 : 1"
       inkscape:vp_y="0 : 1000 : 0"
       inkscape:vp_x="0 : 0.5 : 1"
       sodipodi:type="inkscape:persp3d" />
    <inkscape:perspective
       id="perspective2930"
       inkscape:persp3d-origin="0.5 : 0.33333333 : 1"
       inkscape:vp_z="1 : 0.5 : 1"
       inkscape:vp_y="0 : 1000 : 0"
       inkscape:vp_x="0 : 0.5 : 1"
       sodipodi:type="inkscape:persp3d" />
    <inkscape:perspective
       id="perspective2946"
       inkscape:persp3d-origin="0.5 : 0.33333333 : 1"
       inkscape:vp_z="1 : 0.5 : 1"
       inkscape:vp_y="0 : 1000 : 0"
       inkscape:vp_x="0 : 0.5 : 1"
       sodipodi:type="inkscape:persp3d" />
    <inkscape:perspective
       id="perspective2962"
       inkscape:persp3d-origin="0.5 : 0.33333333 : 1"
       inkscape:vp_z="1 : 0.5 : 1"
       inkscape:vp_y="0 : 1000 : 0"
       inkscape:vp_x="0 : 0.5 : 1"
       sodipodi:type="inkscape:persp3d" />
    <inkscape:perspective
       id="perspective2978"
       inkscape:persp3d-origin="0.5 : 0.33333333 : 1"
       inkscape:vp_z="1 : 0.5 : 1"
       inkscape:vp_y="0 : 1000 : 0"
       inkscape:vp_x="0 : 0.5 : 1"
       sodipodi:type="inkscape:persp3d" />
    <inkscape:perspective
       id="perspective2994"
       inkscape:persp3d-origin="0.5 : 0.33333333 : 1"
       inkscape:vp_z="1 : 0.5 : 1"
       inkscape:vp_y="0 : 1000 : 0"
       inkscape:vp_x="0 : 0.5 : 1"
       sodipodi:type="inkscape:persp3d" />
    <inkscape:perspective
       id="perspective3010"
       inkscape:persp3d-origin="0.5 : 0.33333333 : 1"
       inkscape:vp_z="1 : 0.5 : 1"
       inkscape:vp_y="0 : 1000 : 0"
       inkscape:vp_x="0 : 0.5 : 1"
       sodipodi:type="inkscape:persp3d" />
    <inkscape:perspective
       id="perspective3026"
       inkscape:persp3d-origin="0.5 : 0.33333333 : 1"
       inkscape:vp_z="1 : 0.5 : 1"
       inkscape:vp_y="0 : 1000 : 0"
       inkscape:vp_x="0 : 0.5 : 1"
       sodipodi:type="inkscape:persp3d" />
  </defs>
  <sodipodi:namedview
     id="base"
     pagecolor="#ffffff"
     bordercolor="#666666"
     borderopacity="1.0"
     inkscape:pageopacity="0.0"
     inkscape:pageshadow="2"
     inkscape:zoom="4.66"
     inkscape:cx="136.92228"
     inkscape:cy="112.9764"
     inkscape:document-units="px"
     inkscape:current-layer="layer1"
     showgrid="false"
     inkscape:window-width="1280"
     inkscape:window-height="755"
     inkscape:window-x="0"
     inkscape:window-y="1"
     inkscape:window-maximized="1" />
  <metadata
     id="metadata7">
    <rdf:RDF>
      <cc:Work
         rdf:about="">
        <dc:format>image/svg+xml</dc:format>
        <dc:type
           rdf:resource="http://purl.org/dc/dcmitype/StillImage" />
        <dc:title></dc:title>
      </cc:Work>
    </rdf:RDF>
  </metadata>
  <g
     inkscape:label="Ebene 1"
     inkscape:groupmode="layer"
     id="layer1">
    <image
       y="168.24202"
       x="220.38626"
       id="image2854"
       height="100"
       width="100"
       xlink:href="file:///Users/Frank/Projects/Kueche/inkscape_pasted_image_20211226_205202.png" />
    <path
       style="fill:#000000"
       d="m 178.22317,263.45772 c -12.84224,-6.68771 -12.78105,-6.67729 -20.96024,-3.56858 -3.00313,1.14142 -8.43348,2.32457 -12.06744,2.62923 -6.33992,0.53152 -6.75253,0.42634 -10.19925,-2.59992 -2.91341,-2.55801 -3.72317,-4.10735 -4.28617,-8.20088 -0.46477,-3.37925 -1.23819,-5.22013 -2.34052,-5.57084 -8.06569,-2.56611 -12.54774,-5.04566 -16.11394,-8.91453 -2.21784,-2.40608 -4.06769,-4.49724 -4.11076,-4.64703 -0.0431,-0.14979 -0.27809,-3.53315 -0.52224,-7.51859 -0.49072,-8.01029 1.11277,-12.6135 5.9744,-17.15097 2.12619,-1.98443 2.47367,-3.01761 2.01788,-6 -0.30282,-1.98153 -1.14487,-4.53081 -1.87121,-5.66506 -0.9075,-1.41715 -1.08274,-3.29409 -0.56019,-6 1.92761,-9.9818 5.35779,-12.39894 16.59587,-11.69457 6.77564,0.42468 7.15933,0.32501 10.39895,-2.70124 4.73797,-4.42593 6.22129,-5.04191 12.14126,-5.04191 7.72285,0 18.43613,6.55331 24.04832,14.71034 1.92703,2.80085 4.40624,4.92642 6.91843,5.93161 13.83446,5.53545 20.72539,11.28258 22.37489,18.66094 0.54585,2.44161 -0.16489,3.62716 -5.51416,9.19786 -6.02067,6.2699 -6.14309,6.50845 -6.25984,12.19711 -0.0655,3.19118 0.26728,9.89048 0.73948,14.88733 1.01304,10.7199 0.0439,13.05162 -6.80208,16.3657 -4.90921,2.37651 -6.19244,2.46926 -9.60144,0.694 z m 10.75826,-6.64489 c 0.96797,-1.85544 1.13867,-5.36357 0.66205,-13.60665 -0.35321,-6.10865 -0.31916,-12.57739 0.0756,-14.37497 0.41327,-1.8816 3.00608,-5.75736 6.11094,-9.13467 4.65163,-5.0598 5.3931,-6.41747 5.3931,-9.87502 0,-2.20478 -0.20502,-4.00869 -0.45559,-4.00869 -0.25058,0 -2.06205,1.09017 -4.0255,2.4226 -1.96345,1.33244 -5.84299,2.9101 -8.6212,3.50592 -7.31231,1.56821 -8.822,2.60016 -8.52088,5.82448 0.47821,5.12061 -2.30589,10.99099 -8.71121,18.3679 -0.77408,0.89149 -4.72801,2.3459 -8.78652,3.23201 -6.71183,1.46544 -10.24272,1.48962 -16.57444,0.11354 -2.34644,-0.50996 -10.87765,-7.46123 -13.21535,-10.76793 -2.34277,-3.31387 -3.08166,-15.40733 -1.29038,-21.11957 5.07893,-16.19625 25.8626,-19.80086 39.38827,-6.8313 l 3.68721,3.53561 5.59873,-2.27236 c 3.07931,-1.2498 5.86315,-2.00794 6.18634,-1.68476 1.26229,1.2623 -0.61779,3.29853 -5.12311,5.54859 -7.07742,3.53464 -4.39219,4.73904 4.5823,2.05529 4.05973,-1.21404 7.88679,-2.6027 8.50458,-3.08593 0.61779,-0.48323 1.85529,-0.59769 2.75,-0.25435 1.0547,0.40472 1.62675,0.0992 1.62675,-0.86881 0,-1.72785 -4.88297,-4.19803 -10.13194,-5.12551 -4.53769,-0.80179 -10.44974,-5.07163 -14.36806,-10.37699 -2.70395,-3.66112 -11.17854,-10.11565 -17.3553,-13.21838 -3.61098,-1.81389 -8.63067,-0.33966 -13.65753,4.01106 -5.8442,5.05811 -11.2522,6.59458 -17.27553,4.90815 -4.23832,-1.18665 -4.54819,-1.12979 -6.35755,1.16664 -1.33007,1.68812 -1.72972,3.31628 -1.32895,5.4141 0.31522,1.65 0.82374,5.98338 1.13005,9.62973 0.54431,6.47976 0.4786,6.71729 -2.90482,10.5 -5.17668,5.7876 -5.76695,7.3503 -4.65153,12.31467 1.63278,7.26697 5.56761,12.85289 10.98903,15.60013 2.6651,1.35051 5.56097,2.45547 6.43526,2.45547 1.79927,0 7.47687,5.81033 7.47687,7.65166 0,0.66326 1.51563,2.81298 3.36808,4.77714 3.99681,4.23785 7.05661,4.55711 14.72122,1.536 2.83984,-1.11936 6.569,-2.07748 8.28702,-2.12915 2.7274,-0.082 12.23974,3.44767 16.62368,6.16847 0.825,0.51202 3.06465,0.83306 4.97701,0.71341 2.56886,-0.16071 3.81765,-0.87049 4.78125,-2.71753 z m -43.37176,-7.18927 c 0.84516,-4.72387 1.57318,-6.37187 2.93031,-6.63323 1.5825,-0.30476 1.7171,0.1264 1.08866,3.48737 -1.30598,6.98461 -2.03346,8.83208 -3.59641,9.13323 -1.35867,0.26179 -1.41014,-0.46747 -0.42256,-5.98737 z m 35.8635,3.96877 c -1.2375,-0.59682 -2.25,-1.4507 -2.25,-1.89752 0,-0.44681 -1.39662,-2.40305 -3.10359,-4.34718 -1.70698,-1.94414 -2.74198,-3.5348 -2.3,-3.5348 0.44197,0 0.26359,-0.54 -0.39641,-1.2 -0.66,-0.66 -1.2,-2.01 -1.2,-3 0,-3.32294 2.67328,-1.8423 6.10052,3.37888 1.86972,2.84838 4.18461,6.33588 5.14421,7.75 2.80879,4.13915 2.27088,4.90785 -1.99473,2.85062 z m -42.74354,-7.5295 c 0.39625,-0.9625 0.94688,-2.5375 1.22362,-3.5 0.27675,-0.9625 1.3507,-1.75 2.38655,-1.75 2.27732,0 2.30278,0.28827 0.35769,4.04966 -1.65737,3.20499 -5.23922,4.28856 -3.96786,1.20034 z m 42.68433,-8.68548 c -3.93949,-4.48683 -4.22881,-7.56452 -0.71111,-7.56452 3.38562,0 7.10477,6.81845 5.16565,9.47036 -1.15481,1.5793 -1.53878,1.41502 -4.45454,-1.90584 z m -66.5932,-8.40662 c -0.93353,-1.51048 2.84832,-3.26205 7.99263,-3.7018 7.49845,-0.64098 4.67879,2.83762 -3.33938,4.11978 -2.42355,0.38754 -4.25721,0.22283 -4.65325,-0.41798 z m 3.40241,-11.6579 c 0,-1.08333 1.11111,-1.5 4,-1.5 2.88889,0 4,0.41667 4,1.5 0,1.08333 -1.11111,1.5 -4,1.5 -2.88889,0 -4,-0.41667 -4,-1.5 z m 7.99668,-24.31616 c -5.12612,-4.94093 -6.19463,-7.18384 -3.42233,-7.18384 2.28218,0 11.884,9.44936 11.02089,10.8459 -1.1938,1.9316 -2.39667,1.35189 -7.59856,-3.66206 z m 29.25882,-2.43384 c -1.73659,-2.19403 -2.53963,-11.95355 -1.06075,-12.89153 3.18123,-2.01768 3.80525,-0.92853 3.80525,6.64153 0,7.27254 -0.69051,8.84503 -2.7445,6.25 z m -9.68226,-2.90364 c -2.18282,-4.37557 -1.97767,-5.84636 0.81547,-5.84636 1.94042,0 2.51253,0.66004 3.0485,3.51701 1.13008,6.02385 -1.29239,7.48421 -3.86397,2.32935 z m 18.10683,45.98637 c 4.36131,-2.61866 9.29667,-8.43685 9.43062,-11.11753 0.21894,-4.38143 -0.23801,-7.29451 -1.89138,-12.05765 -1.49053,-4.29404 -2.43412,-5.28994 -8.33177,-8.79367 -7.69239,-4.56996 -11.82275,-5.49696 -17.58232,-3.94607 -10.51178,2.83053 -15.8531,18.59548 -9.15156,27.01088 1.29048,1.62053 3.15485,4.09951 4.14302,5.50886 0.98818,1.40935 2.67568,2.56245 3.75001,2.56245 1.07432,0 1.95331,0.36313 1.95331,0.80696 0,1.56671 5.55584,2.91605 10,2.42868 2.475,-0.27142 5.93103,-1.35273 7.68007,-2.40291 z"
       id="path2858"
       inkscape:export-filename="/Users/Frank/Documents/Arduino/WetterIcons/Sonne2.png"
       inkscape:export-xdpi="91.578773"
       inkscape:export-ydpi="91.578773" />
    <image
       y="287.47162"
       x="183.69099"
       id="image2886"
       height="83"
       width="100"
       xlink:href="file:///Users/Frank/Projects/Kueche/inkscape_pasted_image_20211226_211843.png" />
    <path
       style="fill:#000000"
       d="m 104.81545,359.69446 c -3.025,-1.13564 -6.624996,-2.37413 -7.999996,-2.75219 -3.26355,-0.89733 -12,-6.14053 -12,-7.20182 0,-0.45342 -2.19964,-3.23115 -4.88809,-6.17274 -10.22219,-11.18471 -11.84656,-30.75611 -3.35631,-40.43884 5.54152,-6.31984 17.52795,-7.27508 21.7444,-1.73288 0.77955,1.02465 1.869606,0.43331 4.944726,-2.68243 4.32009,-4.37717 11.03025,-6.95868 18.08783,-6.95868 4.35706,0 10.8862,2.92941 17.1105,7.67691 3.07849,2.34808 7.35694,9.4827 7.35694,12.26823 0,0.58017 1.65792,1.05486 3.68428,1.05486 6.3261,0 14.58623,5.06734 18.74993,11.50251 1.48312,2.29222 1.93421,4.77315 1.93421,10.63783 0,8.24924 -0.64218,9.82787 -6.54111,16.07963 -3.91643,4.15068 -12.99008,6.81376 -17.63624,5.17616 -2.17443,-0.7664 -3.73667,-0.41421 -8.13739,1.83449 -4.70289,2.4031 -6.95517,2.85061 -16.5,3.27837 -9.51083,0.42624 -11.82136,0.20718 -16.55368,-1.56941 z m 26.88944,-4.45742 5.38943,-1.80358 -2.87154,-2.08929 c -6.14787,-4.4731 -7.54435,-6.06865 -6.86377,-7.84222 1.03755,-2.70379 3.24806,-2.10047 8.16649,2.22891 4.94837,4.35573 8.85328,5.51261 16.21837,4.80492 7.0094,-0.67351 10.19747,-3.39823 12.48424,-10.66976 1.6075,-5.11155 1.72723,-6.70086 0.75043,-9.96113 -2.19373,-7.32201 -8.00705,-12.15001 -14.62966,-12.15001 -3.13011,0 -3.15615,0.0418 -2.81921,4.52218 0.29699,3.94919 0.0515,4.62926 -1.93707,5.36726 -2.21484,0.82195 -2.31081,0.59746 -3.50739,-8.20419 -1.0922,-8.03389 -1.59713,-9.4326 -4.5,-12.46563 -3.64892,-3.81252 -11.41661,-7.64626 -17.61376,-8.69326 -3.36602,-0.56869 -4.96137,-0.21285 -9.06909,2.02286 -6.52915,3.5536 -8.42803,5.72739 -11.312956,12.95078 -1.90912,4.7801 -2.86042,6.02398 -4.67889,6.11796 -2.14897,0.11106 -2.24307,-0.14528 -1.60799,-4.38032 0.37101,-2.47405 1.17944,-5.60637 1.79652,-6.9607 0.97416,-2.13807 0.80313,-2.70292 -1.29842,-4.28812 -5.81843,-4.38886 -11.9484,-2.32044 -16.58858,5.59743 -2.37632,4.05487 -2.74088,5.70696 -2.61552,11.85286 0.0801,3.9277 0.80343,8.69818 1.60737,10.60108 4.16347,9.85475 16.22222,19.66101 29.611556,24.08034 6.79321,2.24219 18.11608,1.963 25.88944,-0.63837 z"
       id="path2890"
       inkscape:export-filename="/Users/Frank/Documents/Arduino/WetterIcons/WolkeMittel.png"
       inkscape:export-xdpi="91"
       inkscape:export-ydpi="91" />
    <image
       y="392.97592"
       x="188.41202"
       id="image2902"
       height="78"
       width="100"
       xlink:href="file:///Users/Frank/Projects/Kueche/inkscape_pasted_image_20211226_222011.png" />
    <path
       style="fill:#000000"
       d="m 132.5403,457.9877 c -2.24813,-0.89405 -8.81251,-3.29199 -14.58751,-5.32875 -5.775,-2.03676 -11.85,-4.28032 -13.5,-4.9857 -4.535297,-1.93884 -18.499997,-0.16818 -18.499997,2.34572 0,0.36469 -1.32319,1.4447 -2.94043,2.40003 -2.14651,1.26797 -4.03159,1.56246 -6.98182,1.0907 -2.22277,-0.35543 -3.79014,-1.05279 -3.48304,-1.54968 0.30709,-0.49689 5.05885,-3.14069 10.55945,-5.8751 9.39449,-4.67011 10.46966,-4.97166 17.726357,-4.97166 6.94211,0 8.54755,0.39764 15.83639,3.92244 9.28192,4.48863 20.06073,8.49272 25.54369,9.48891 2.9584,0.5375 4.84245,0.13987 8.83216,-1.86405 4.42959,-2.22486 9.90724,-3.39279 9.90724,-2.1124 0,0.2392 -0.42383,1.54966 -0.94184,2.91213 -1.90605,5.01328 -19.11657,7.84973 -27.47065,4.52741 z m 2.51618,-18.93724 c -6.72051,-1.3496 -14.64859,-4.30876 -25.11033,-9.37241 -14.479917,-7.00853 -24.032227,-7.17898 -31.493357,-0.56197 -3.2311,2.86555 -7.03875,3.64157 -7.82423,1.59462 -0.26722,-0.69634 0.62591,-2.68664 1.98472,-4.42288 3.39546,-4.3386 13.94527,-7.58003 22.64148,-6.9566 5.011987,0.35931 8.589997,1.60459 18.698027,6.50759 14.77083,7.16473 18.20614,8.21831 25.37098,7.78108 6.88358,-0.42008 10.98072,-2.56987 14.2165,-7.45946 3.10311,-4.68911 5.03942,-5.61746 6.57801,-3.15378 0.63115,1.01063 1.90211,1.64019 2.82436,1.39901 1.11005,-0.29028 1.68708,0.1777 1.70718,1.38455 0.0433,2.59853 -1.17147,3.84357 -8.63697,8.85237 -7.2762,4.88181 -12.80527,6.04477 -20.95637,4.40788 z m -9.10369,-18.98849 c -3.025,-1.15575 -6.86158,-2.62951 -8.52573,-3.27504 -1.66415,-0.64552 -7.04954,-3.3881 -11.96754,-6.09462 -11.323317,-6.23157 -15.702827,-6.40866 -27.439217,-1.10953 -8.81555,3.98033 -9.06751,4.04137 -9.06751,2.1967 0,-1.695 8.98854,-7.89688 15.42738,-10.64454 6.34629,-2.70817 8.29143,-2.28032 22.572617,4.96504 16.26044,8.24951 21.3565,10.01218 28.94785,10.01278 l 6.44784,5e-4 6.80837,-7 c 4.06286,-4.1772 7.63525,-7 8.85886,-7 2.30924,0 2.61907,-0.58929 -4.76349,9.0603 -5.99961,7.84199 -9.39698,10.06532 -16.14947,10.56863 -4.12731,0.30764 -7.13219,-0.14517 -11.14996,-1.68022 z"
       id="path2906"
       inkscape:export-filename="/Users/Frank/Documents/Arduino/WetterIcons/Nebel.png"
       inkscape:export-xdpi="94.045738"
       inkscape:export-ydpi="94.045738" />
    <image
       y="475.1669"
       x="174.24893"
       id="image2932"
       height="81"
       width="100"
       xlink:href="file:///Users/Frank/Projects/Kueche/inkscape_pasted_image_20211226_222819.png" />
    <path
       style="fill:#000000"
       d="m 116.96281,552.99808 c -1.21702,-1.21701 -0.62577,-3.80253 1.43608,-6.27992 2.6445,-3.17747 4.07141,-1.23083 2.60355,3.55188 -0.98081,3.19578 -2.52743,4.24024 -4.03963,2.72804 z m -9.18785,-1.36761 c -1.03374,-1.67262 -0.95129,-25.85241 0.0914,-26.81574 0.38695,-0.35749 0.90537,-0.0847 1.15205,0.60625 0.24668,0.69093 0.86007,1.00187 1.3631,0.69098 0.50302,-0.31088 0.95563,0.47381 1.0058,1.74377 0.0985,2.49201 3.18908,-6.54107 4.34358,-12.69511 0.79065,-4.21449 0.0376,-4.07585 -5.59599,1.03034 -7.24197,6.56393 -10.95061,8.91091 -11.83068,7.48693 -0.4576,-0.74041 -0.42162,-2.42555 0.0799,-3.74477 0.50157,-1.31921 0.91194,-4.00659 0.91194,-5.97194 0,-1.96536 1.35,-8.24544 3,-13.95574 1.65,-5.71031 3,-10.59799 3,-10.86153 0,-0.26354 1.06612,-0.47916 2.36916,-0.47916 3.60742,0 4.11622,5.38224 1.20987,12.79834 -1.25869,3.21179 -2.61076,7.60858 -3.00459,9.77064 l -0.71606,3.93102 6.7581,-6.75 c 3.71695,-3.7125 7.08632,-6.75 7.48748,-6.75 0.40115,0 1.12677,1.19219 1.61247,2.6493 0.92705,2.78115 -0.0951,9.2714 -3.07179,19.50461 -2.09737,7.2103 -2.04565,7.91561 0.35536,4.84609 l 1.95553,-2.5 0.0222,2.80305 c 0.0122,1.54168 -1.10277,4.45864 -2.47777,6.48214 -1.375,2.02349 -2.5,4.05464 -2.5,4.51367 0,0.45902 -1.06758,2.26706 -2.3724,4.01786 -1.30481,1.7508 -2.79743,4.51112 -3.31691,6.13403 -0.72911,2.2778 -1.14689,2.6233 -1.83187,1.51497 z m -25.92705,-3.20143 c 0.66961,-3.04871 2.86791,-5.66142 4.82323,-5.73249 1.2895,-0.0469 -0.11287,5.84893 -1.79018,7.52624 -2.51395,2.51394 -3.81073,1.74702 -3.03305,-1.79375 z m 13.09601,-0.23979 c -0.80992,-2.11061 2.09861,-8.5245 3.86564,-8.5245 1.87612,0 1.88823,2.10296 0.0376,6.53212 -1.53869,3.68259 -2.97359,4.41503 -3.90325,1.99238 z m 38.14485,0.9348 c -0.87229,-0.87229 0.92427,-6.60478 2.59288,-8.27339 1.21191,-1.2119 1.49101,-1.14861 1.99587,0.45258 1.30552,4.14057 -2.2349,10.17466 -4.58875,7.82081 z m -8.30471,-5.47885 c -0.77834,-1.25938 1.34587,-7.98045 2.52224,-7.98045 1.32052,0 2.23952,3.86904 1.56108,6.57217 -0.61891,2.46592 -2.93581,3.26499 -4.08332,1.40828 z M 89.6706,535.54246 c 0.69418,-3.47091 3.11399,-6.72259 4.19689,-5.63969 1.21361,1.21361 -0.76982,6.79783 -2.8005,7.88461 -1.94416,1.04049 -2.02688,0.90751 -1.39639,-2.24492 z m -17.93803,-5.72904 c -3.58298,-2.21339 -8.42742,-9.43815 -11.37789,-16.96846 -4.24326,-10.82976 -2.16544,-24.09692 4.41039,-28.16101 3.8921,-2.40545 11.14302,-2.67973 14.20189,-0.53721 1.96785,1.37834 2.4069,1.21592 6.27764,-2.32229 6.15528,-5.62647 12.47389,-7.57779 22.12732,-6.83338 5.41546,0.41762 9.35587,1.36546 12.68072,3.05029 5.91716,2.99845 12.78269,10.24885 13.7122,14.48089 0.63423,2.88763 1.0162,3.1425 4.70963,3.1425 4.84983,0 10.18497,2.37511 12.7985,5.69767 2.75244,3.49916 5.22155,12.72797 4.47292,16.71848 -1.16284,6.19846 -10.00671,14.45856 -13.88641,12.96978 -2.3581,-0.90489 -1.89295,-2.00676 1.42782,-3.38227 5.96855,-2.47225 10.44742,-15.29986 7.40285,-21.20197 -2.29222,-4.44361 -7.65075,-7.9144 -11.78876,-7.63572 -3.19504,0.21518 -3.60525,0.55159 -3.60525,2.95663 0,4.01833 -0.98277,5.8774 -3.10699,5.8774 -1.33291,0 -1.89301,-0.712 -1.89301,-2.40638 0,-1.87212 -0.42198,-2.29603 -1.90064,-1.90935 -1.48774,0.38905 -2.05278,-0.1957 -2.601,-2.69173 -0.78937,-3.59397 -8.78111,-12.31273 -12.31376,-13.43395 -3.11606,-0.989 -2.22206,-2.98953 1.50218,-3.36149 2.56562,-0.25624 3.76955,0.51391 7.81619,5 2.63088,2.91659 5.38602,6.6529 6.12251,8.3029 l 1.33909,3 -0.40534,-3.73757 c -0.77732,-7.16752 -6.30546,-12.22747 -16.55923,-15.15678 -7.05271,-2.01483 -14.55803,-1.8459 -19,0.42767 -5.93953,3.04006 -13,11.93726 -13,16.38184 0,0.83296 -0.86732,1.97865 -1.92738,2.54598 -2.6137,1.3988 -3.14293,-1.16031 -1.3362,-6.46114 1.33803,-3.92566 1.30639,-4.05111 -1.7023,-6.75 -4.09873,-3.67668 -7.45853,-3.5256 -11.50133,0.51721 -10.16564,10.16564 -2.99889,35.3621 11.4411,40.224 1.64788,0.55483 3.01687,1.45879 3.04221,2.00879 0.0827,1.79488 -4.44517,1.58501 -7.57967,-0.35133 z m 14.69112,-43.89867 c 1.24388,-1.58606 1.20851,-1.62143 -0.37755,-0.37755 -0.9625,0.75484 -1.75,1.54234 -1.75,1.75 0,0.82303 0.82119,0.2933 2.12755,-1.37245 z m 42.87803,43.5 c 0.014,-3.14919 2.23229,-8.83795 3.30853,-8.48484 1.62139,0.53196 2.05236,5.18156 0.71236,7.68539 -1.19887,2.2401 -4.02983,2.80297 -4.02089,0.79945 z m -45.49874,-2.73893 c -0.67052,-1.08492 2.15759,-7.68565 3.70189,-8.64007 2.21963,-1.37181 2.85204,1.43665 1.23406,5.48037 -1.5876,3.9678 -3.62891,5.27453 -4.93595,3.1597 z m 59.54442,-3.97939 c -0.99546,-0.61523 -1.18987,-2.21357 -0.73568,-6.04848 0.67484,-5.69798 -1.17361,-10.9832 -3.84126,-10.9832 -1.93253,0 -1.9012,-1.89896 0.0436,-2.64527 2.30689,-0.88523 7.32547,1.58772 8.12328,4.00282 0.38925,1.17835 0.66409,4.49159 0.61074,7.36277 -0.10805,5.81559 -2.04335,9.64469 -4.20072,8.31136 z m -74.05848,-3.91861 c -4.22346,-4.43978 -4.99278,-7.23953 -4.99278,-18.16998 0,-7.52947 0.1064,-7.88266 2.99398,-9.9388 1.92859,-1.37328 4.12924,-2.02024 6.18433,-1.8181 l 3.19035,0.31381 -3.33855,3.3273 c -2.63727,2.62837 -3.43715,4.35344 -3.80795,8.21241 -0.54357,5.65709 1.60638,12.06284 5.38598,16.04747 1.54056,1.62413 2.21653,3.20614 1.81597,4.25 -1.0254,2.67215 -3.46948,1.94066 -7.43133,-2.22411 z m 19.49514,-5.13262 c -0.34657,-0.56075 -0.10305,-2.6166 0.54115,-4.56855 0.81919,-2.48215 1.61666,-3.37809 2.65289,-2.98045 0.81489,0.3127 1.85861,0.56855 2.31938,0.56855 0.46077,0 0.13071,1.8 -0.73348,4 -1.5192,3.86752 -3.47717,5.08838 -4.77994,2.98045 z m -3.84439,-15.74822 c -0.82989,-1.34278 3.84395,-8.04348 7.80749,-11.1933 2.94005,-2.33646 4.83241,-3.03893 8.18648,-3.03893 2.39938,0 4.36014,0.3375 4.35725,0.75 -0.003,0.4125 -2.14039,1.425 -4.75,2.25 -3.93002,1.24243 -5.33763,2.40149 -8.19748,6.75 -3.14185,4.77729 -6.1106,6.57458 -7.40374,4.48223 z"
       id="path2936"
       inkscape:export-filename="/Users/Frank/Documents/Arduino/WetterIcons/Gewitter.png"
       inkscape:export-xdpi="92.083214"
       inkscape:export-ydpi="92.083214" />
    <image
       y="567.21625"
       x="161.1588"
       id="image2948"
       height="66"
       width="100"
       xlink:href="file:///Users/Frank/Projects/Kueche/inkscape_pasted_image_20211226_224202.png" />
    <path
       style="fill:#000000"
       d="M 64.37859,626.59142 C 50.19314,620.60523 42.13983,611.65727 39.00991,598.40455 34.82504,580.68498 48.32295,564.24757 61.527,570.98378 l 4.17236,2.12858 4.89625,-3.14191 c 3.06252,-1.96522 7.25882,-3.54661 11.20461,-4.22249 5.54557,-0.94992 7.16476,-0.82046 13.39086,1.07066 5.70372,1.73246 7.86513,3.00031 11.10273,6.51268 2.21112,2.39879 4.58685,5.92842 5.2794,7.84362 1.05729,2.92388 1.97519,3.67369 5.72491,4.67659 7.44575,1.99144 12.4687,6.1852 16.19055,13.51784 2.89938,5.71223 3.26063,7.25525 2.85205,12.18212 -0.38993,4.7021 -0.98489,6.12467 -3.57322,8.54366 -1.70796,1.59623 -3.39782,2.90224 -3.75525,2.90224 -0.35742,0 -1.99916,0.96079 -3.64831,2.13509 -2.66279,1.89607 -3.91149,2.07325 -11.15437,1.58274 -4.48576,-0.30379 -9.94061,-1.19206 -12.12189,-1.97394 -3.62604,-1.29974 -4.24759,-1.25543 -7.25161,0.51699 -3.69205,2.17836 -6.49388,2.71542 -17.28242,3.31276 -6.27063,0.34719 -8.43023,0.0227 -13.17506,-1.97959 z m 25.90208,-3.95289 c 3.23277,-1.67173 3.56037,-3.93317 0.72726,-5.02033 -1.59695,-0.61281 -4.45428,-6.91616 -4.45428,-9.82629 0,-2.69296 1.98949,-1.79877 3.91306,1.75875 4.38487,8.10953 8.28333,10.81433 17.90973,12.42598 10.16283,1.70147 15.03054,0.79901 19.26717,-3.57209 4.22171,-4.35569 4.50206,-9.16337 1.02957,-17.65562 -2.57233,-6.29082 -8.56486,-11.75156 -12.89599,-11.75156 -2.11637,0 -2.3103,0.3285 -1.73642,2.94135 0.78384,3.56883 -0.92178,7.21282 -3.00237,6.41442 -1.01471,-0.38938 -1.48942,-2.03963 -1.49949,-5.21276 -0.0146,-4.60067 -0.42454,-5.66437 -4.68343,-12.15279 -1.209,-1.8419 -1.92697,-3.78774 -1.5955,-4.32408 0.33928,-0.54896 0.085,-0.65523 -0.58172,-0.24315 -0.65143,0.4026 -3.08346,-0.37332 -5.40451,-1.72428 -7.95211,-4.62848 -14.64621,-5.03291 -22.89836,-1.38342 -7.56434,3.34531 -10.82174,7.48757 -10.82174,13.76143 0,5.84589 -1.96493,6.67461 -3.79911,1.60228 -1.56041,-4.31522 -1.51956,-5.2052 0.42717,-9.30763 1.52406,-3.21171 1.51416,-3.55674 -0.15499,-5.40112 -5.24222,-5.7926 -15.27437,0.87655 -18.56191,12.33953 -1.20548,4.20324 1.96097,18.69022 4.08516,18.69022 0.41452,0 1.00611,1.2375 1.31463,2.75 0.30853,1.5125 2.62427,4.775 5.1461,7.25 3.67097,3.60281 6.22579,5.02476 12.81405,7.13204 9.5778,3.06348 20.10902,3.27411 25.45592,0.50912 z m 17.52298,-3.81606 c -1.82902,-1.13073 -3.25,-2.84341 -3.25,-3.91715 0,-2.31086 0.39829,-2.33231 6.25471,-0.33683 5.3591,1.82603 8.2411,0.88519 9.79316,-3.19702 1.72417,-4.53493 1.11603,-8.36191 -1.79787,-11.31378 -3.66146,-3.70918 -4.04309,-6.06032 -0.98368,-6.06032 3.66372,0 8.52533,5.42148 9.25323,10.31884 0.71083,4.7825 0.0956,9.23499 -1.54997,11.21781 -1.73344,2.08867 -9.30461,5.47344 -12.0353,5.3805 -1.33886,-0.0456 -3.89678,-0.98698 -5.68428,-2.09205 z m -23.78472,0.16935 c -2.83595,-1.07422 -3.94413,-2.70798 -5.89603,-8.69236 -1.29516,-3.97087 -1.43612,-5.68232 -0.59713,-7.25 1.68451,-3.14753 2.53451,-2.50186 3.94344,2.99551 0.71151,2.77618 2.37159,6.32864 3.68905,7.89435 3.5374,4.20396 2.99308,6.6178 -1.13933,5.0525 z M 52.19787,607.84739 c -5.28467,-5.75903 -6.90498,-12.96721 -4.6681,-20.76675 1.1773,-4.10501 4.70452,-8.08327 7.16681,-8.08327 2.19352,0 1.41029,2.83687 -1.32708,4.8067 -4.11364,2.96021 -1.3546,16.56364 4.55878,22.47702 3.35967,3.35967 3.32354,4.72109 -0.12463,4.69735 -1.7832,-0.0123 -3.75399,-1.11305 -5.60578,-3.13105 z m 49.54866,-12.60002 c -2.03452,-6.78965 -6.60422,-12.88227 -10.20187,-13.6018 -8.32732,-1.66546 -14.49721,0.56243 -17.46814,6.30758 -1.11565,2.15743 -2.30055,3.04422 -4.0676,3.04422 -2.63323,0 -2.585,0.35654 -0.98073,-7.25 0.81691,-3.87336 6.70863,-6.9586 14.32976,-7.50389 5.87588,-0.42041 7.46842,-0.14161 11.83762,2.07244 4.06011,2.05741 5.59738,3.60681 7.85296,7.9149 2.25957,4.31573 2.66952,6.07669 2.10954,9.06163 -0.885,4.71748 -1.9888,4.7029 -3.41154,-0.0451 z"
       id="path2952"
       inkscape:export-filename="/Users/Frank/Documents/Arduino/WetterIcons/WolkeDunkel.png"
       inkscape:export-xdpi="91.607079"
       inkscape:export-ydpi="91.607079" />
    <image
       y="637.54034"
       x="165.02145"
       id="image2980"
       height="79"
       width="100"
       xlink:href="file:///Users/Frank/Projects/Kueche/inkscape_pasted_image_20211226_225447.png" />
    <path
       style="fill:#000000"
       d="m 74.033858,710.55413 c -2.09521,-1.04623 -5.24521,-2.38209 -7,-2.96857 -4.65529,-1.5559 -7.07076,-7.11602 -6.50276,-14.96858 0.37257,-5.15061 0.17263,-6.14916 -1.3265,-6.62496 -1.97946,-0.62826 -6.48581,-9.21311 -7.47866,-14.24726 -1.24608,-6.31816 4.06018,-15.06155 11.1174,-18.31867 4.40404,-2.03259 14.67849,-2.53307 18.9173,-0.92148 2.11149,0.80278 3.0034,0.54605 5.21113,-1.5 4.57916,-4.24382 6.0036,-2.56928 2.27214,2.67108 l -2.09943,2.94838 2.84943,-0.62754 c 1.56719,-0.34514 3.44795,-0.81464 4.17947,-1.04333 0.73152,-0.2287 3.83211,-0.12174 6.890192,0.23768 4.70399,0.55286 6.34698,1.34514 10.66996,5.14527 2.8104,2.47048 5.85182,6.16245 6.75873,8.20439 1.47643,3.32423 2.11474,3.76512 6.10175,4.21452 4.78686,0.53955 9.76124,3.62705 12.45536,7.73082 1.10286,1.67991 1.80078,5.28021 2.04516,10.55017 0.43337,9.34566 -1.06857,12.69635 -7.64065,17.04554 -5.79879,3.83746 -10.31578,4.1004 -18.58987,1.08215 l -6.97933,-2.54594 -7.020672,2.01904 c -3.86137,1.11048 -7.80206,2.44208 -8.7571,2.95913 -2.93434,1.58861 -11.97932,1.00232 -16.07305,-1.04184 z m 24.08503,-5.04152 c 3.605392,-1.38185 4.635082,-2.2449 4.347132,-3.64366 -0.73083,-3.55011 -0.61106,-4.62175 0.56296,-5.03715 0.6521,-0.23073 1.7771,0.69733 2.5,2.06235 3.32079,6.27053 12.80534,10.68134 19.70801,9.16526 2.76743,-0.60783 9.09953,-5.66819 9.11214,-7.28206 0.003,-0.40771 0.43169,-3.34165 0.95222,-6.51986 0.79943,-4.881 0.64872,-6.47308 -0.97025,-10.25 -1.05418,-2.45929 -2.45974,-4.47144 -3.12348,-4.47144 -0.66374,0 -1.94676,-0.66966 -2.85116,-1.48812 -0.90439,-0.81847 -3.02717,-1.76469 -4.71729,-2.10271 -2.83219,-0.56644 -3.16468,-0.3366 -4.24402,2.93385 -1.63763,4.96205 -3.51937,3.6979 -3.70778,-2.49088 -0.17916,-5.88483 -2.0417,-8.94363 -8.02245,-13.17506 -7.61349,-5.38659 -17.524882,-4.47378 -24.230202,2.23154 -3.19998,3.19998 -5.75986,8.73336 -4.58984,9.92128 0.17871,0.18145 1.60148,-0.46985 3.1617,-1.44734 1.56022,-0.97748 2.50193,-1.3911 2.09269,-0.91916 -0.40925,0.47194 0.26575,1.36154 1.5,1.97687 1.23424,0.61534 2.24407,1.78051 2.24407,2.58926 0,1.15524 -1.15295,1.39514 -5.37832,1.11907 -3.73917,-0.2443 -5.64397,0.0605 -6.25,1 -0.67837,1.0517 -1.0484,1.07856 -1.66853,0.12109 -0.59399,-0.9171 -1.73957,-0.5897 -4.5,1.28605 -2.03673,1.384 -3.70315,3.02721 -3.70315,3.65157 0,0.62437 -0.70256,1.91153 -1.56125,2.86037 -2.23246,2.46684 -2.09768,9.55612 0.24304,12.78406 1.05619,1.45654 4.37237,3.91317 7.36928,5.45917 5.07529,2.61816 5.98211,2.76516 13.22448,2.14366 4.27655,-0.36699 9.90155,-1.48209 12.5,-2.47801 z m -26.66585,-28.83714 c 2.03821,-0.76792 2.75401,-1.88562 3.26862,-5.10387 0.45811,-2.86482 1.89864,-5.46558 4.72675,-8.53371 2.2373,-2.42719 3.78492,-4.87082 3.43916,-5.43028 -0.93719,-1.5164 -7.53213,-2.96716 -11.74246,-2.58312 -10.30675,0.94011 -15.98499,10.41234 -12.83206,21.40595 0.53334,1.85966 1.73806,4.2302 2.67714,5.26788 1.66252,1.83706 1.78825,1.80875 4.78029,-1.07646 1.69007,-1.62973 4.24723,-3.4056 5.68256,-3.94639 z m -19.42317,15.67581 c 3.15153,-5.80775 5.31347,-7.27037 5.31347,-3.59473 0,2.20235 -5.51454,8.7795 -7.36108,8.7795 -0.42122,0 0.5002,-2.33315 2.04761,-5.18477 z m -10.68653,-9.7091 c 0,-1.16511 10.03128,-4.40819 10.91173,-3.52773 0.68065,0.68065 -2.77871,2.75998 -4.91173,2.95231 -0.825,0.0744 -2.5125,0.46574 -3.75,0.86966 -1.35107,0.44099 -2.25,0.32344 -2.25,-0.29424 z m 0.56638,-15.00391 c -1.40727,-0.55109 -1.59377,-0.96726 -0.68512,-1.52884 1.51809,-0.93823 7.81725,0.12978 8.64268,1.46535 0.69746,1.12853 -5.11937,1.17493 -7.95756,0.0635 z m 13.01911,-19.72817 c -3.06712,-5.48769 -3.11046,-5.72538 -0.82057,-4.49986 0.97071,0.51951 2.79951,2.78534 4.06399,5.03519 1.82079,3.23965 1.99149,4.09062 0.82057,4.09062 -0.81317,0 -2.64196,-2.08168 -4.06399,-4.62595 z m 25.41451,1.91029 c 0,-1.52012 4.25595,-9.28434 5.08921,-9.28434 1.21302,0 1.17093,0.30937 -0.66691,4.90259 -1.34336,3.3574 -4.4223,6.4081 -4.4223,4.38175 z m -14.97323,-6.68874 c -0.82799,-2.95728 -0.91234,-4.97765 -0.25674,-6.14915 0.83632,-1.49443 1.12519,-1.25707 2.01338,1.6544 2.13282,6.99135 2.31839,8.89915 0.8656,8.89915 -0.78854,0 -1.92222,-1.90417 -2.62224,-4.4044 z"
       id="path2984"
       inkscape:export-filename="/Users/Frank/Documents/Arduino/WetterIcons/SonneWolke.png"
       inkscape:export-xdpi="91"
       inkscape:export-ydpi="91" />
    <image
       y="724.66046"
       x="157.51073"
       id="image2996"
       height="73"
       width="100"
       xlink:href="file:///Users/Frank/Projects/Kueche/inkscape_pasted_image_20211226_230218.png" />
    <path
       style="fill:#000000"
       d="m 78.047026,794.94827 c -0.59482,-1.55007 2.95628,-8.5024 4.34284,-8.5024 1.21524,0 1.95127,3.92312 0.8623,4.59614 -0.5323,0.32898 -1.37891,1.67943 -1.88137,3.001 -1.0367,2.72673 -2.47454,3.11834 -3.32377,0.90526 z m -24.66768,-2.83362 c -6.60458,-3.05306 -13.42875,-12.84187 -15.52678,-22.27211 -4.05934,-18.24597 3.01509,-30.68624 16.53988,-29.08512 l 4.51528,0.53454 4.79886,-6.43201 c 6.72747,-9.01694 8.22977,-9.81765 18.05834,-9.62487 16.17389,0.31723 26.026814,4.69085 29.182464,12.95381 0.99506,2.60552 1.71274,6.60079 1.59484,8.87837 -0.20387,3.93851 -0.0534,4.17421 3.07557,4.81912 12.32369,2.53998 18.76978,10.83135 18.78435,24.16161 0.0107,9.82632 -6.3853,15.13194 -19.41962,16.10888 -6.10891,0.45787 -7.41612,0.25249 -9.5748,-1.50429 -1.375,-1.119 -2.18393,-2.35186 -1.79762,-2.73968 0.38631,-0.38782 1.43095,0.0234 2.32143,0.91392 3.32376,3.32376 15.30862,0.88277 21.72619,-4.42503 3.47934,-2.87767 3.74451,-3.4752 3.67392,-8.27872 -0.13423,-9.13442 -3.81143,-15.47877 -10.62051,-18.32379 -6.01541,-2.5134 -9.03799,-2.08548 -12.31174,1.74302 -2.19055,2.56176 -2.92044,2.96738 -2.95103,1.64 -0.0223,-0.96996 0.3655,-2.54496 0.8619,-3.5 2.52591,-4.85972 3.40455,-10.26747 2.27203,-13.98362 -1.7308,-5.67926 -4.8619,-10.1788 -7.92503,-11.38865 -10.668924,-4.21391 -23.887674,-4.68215 -29.019534,-1.02794 -3.41089,2.42876 -7.23001,7.99201 -7.23001,10.53181 0,0.89758 -0.4345,1.63197 -0.96556,1.63197 -0.53105,0 -1.26634,2.26741 -1.63396,5.03868 -0.74754,5.63523 -2.47363,6.1475 -3.51743,1.0439 -0.89645,-4.38318 -2.03166,-5.31662 -6.61186,-5.43672 -4.04618,-0.1061 -9.10696,2.88976 -10.4509,6.18669 -1.18793,2.91417 -0.84915,12.50103 0.61186,17.31498 2.05603,6.77449 4.32838,10.87247 8.36575,15.08687 4.80517,5.01587 8.64907,6.14163 18.04635,5.28521 8.2507,-0.75193 8.50911,-0.22939 1.67056,3.37811 -4.44275,2.34365 -12.34454,2.71195 -16.54319,0.77106 z m 36.02838,-7.01379 c 0,-2.27017 3.49211,-6.49621 4.51926,-5.46907 0.77399,0.774 -2.40877,7.81408 -3.53268,7.81408 -0.54262,0 -0.98658,-1.05526 -0.98658,-2.34501 z m -15.33714,-7.09117 c -0.7695,-2.00529 3.2876,-7.01336 4.61018,-5.69078 0.68758,0.68758 0.60682,2.00278 -0.25,4.07132 -1.33983,3.23464 -3.44091,4.01502 -4.36018,1.61946 z m 23.53597,-5.41977 c -2.16966,-1.37621 0.56893,-6.14405 3.529074,-6.14405 2.03373,0 2.29994,0.34882 1.7171,2.25 -0.76451,2.49376 -2.35117,4.75826 -3.317454,4.73469 -0.34515,-0.008 -1.21308,-0.38671 -1.92872,-0.84064 z m -10.3976,-4.67615 c -0.4516,-0.4516 0.91214,-6.89924 1.74315,-8.24144 0.0931,-0.15045 0.88189,-1.2e-4 1.75275,0.33406 1.30795,0.50191 1.38772,1.07136 0.45858,3.27354 -1.39275,3.30097 -3.18601,5.40231 -3.95448,4.63384 z m -14.26387,-8.7179 c 0.85491,-3.9905 0.80842,-3.93828 2.81951,-3.16655 2.15718,0.82779 2.0839,2.70768 -0.18561,4.76156 -2.71186,2.4542 -3.41072,2.03099 -2.6339,-1.59501 z"
       id="path3000"
       inkscape:export-filename="/Users/Frank/Documents/Arduino/WetterIcons/Niesel.png"
       inkscape:export-xdpi="91"
       inkscape:export-ydpi="91" />
    <image
       y="805.63684"
       x="160.08583"
       id="image3012"
       height="78"
       width="100"
       xlink:href="file:///Users/Frank/Projects/Kueche/inkscape_pasted_image_20211226_230907.png" />
    <path
       style="fill:#000000"
       d="m 76.065049,880.88684 c 0.003,-0.9625 1.0651,-3.07495 2.36081,-4.69433 2.30777,-2.88423 2.37855,-2.90191 3.4678,-0.86663 0.92229,1.72332 0.69834,2.52398 -1.31307,4.69433 -2.80973,3.03175 -4.52262,3.36049 -4.51554,0.86663 z m 19.18414,0.88804 c -1.02502,-0.65005 -0.69221,-1.88433 1.52617,-5.66008 4.835991,-8.23097 6.381841,-6.50187 2.47827,2.77204 -1.67927,3.98953 -1.95453,4.18805 -4.00444,2.88804 z m -29.52603,-2.88804 c -0.82671,-1.36285 2.52192,-8.25 4.01126,-8.25 0.90496,0 1.27998,0.66561 0.98599,1.75 -0.26094,0.9625 -0.74984,2.9875 -1.08644,4.5 -0.56808,2.55266 -2.86348,3.72654 -3.91081,2 z m 23.33692,-1.12788 c 0,-2.40665 3.21758,-8.12212 4.57244,-8.12212 0.85007,0 1.36971,0.3375 1.15473,0.75 -0.21497,0.4125 -1.16264,2.4375 -2.10593,4.5 -1.55977,3.41043 -3.62124,5.04545 -3.62124,2.87212 z m 27.500001,-1.81237 c -4.85169,-0.63167 -8.41518,-2.36722 -7.85543,-3.8259 0.85615,-2.23109 3.11048,-2.47836 7.58356,-0.83181 4.14479,1.5257 4.44426,1.49329 10.06693,-1.0897 6.47772,-2.97579 9.15252,-6.38647 10.12901,-12.91568 1.5926,-10.64878 -6.36775,-21.64666 -15.66802,-21.64666 -3.20871,0 -3.97127,0.42725 -4.90819,2.75 -2.01585,4.99757 -4.29277,9.25 -4.95282,9.25 -0.35758,0 -1.21736,-0.68344 -1.91061,-1.51876 -1.02413,-1.234 -0.97421,-1.84335 0.26626,-3.25 2.93091,-3.32354 3.92557,-15.00725 1.76203,-20.69777 -1.46377,-3.85001 -8.11694,-9.92298 -12.266061,-11.19639 -1.9397,-0.59531 -6.45568,-0.98072 -10.03551,-0.85647 -5.19948,0.18047 -7.48465,0.82031 -11.35997,3.18075 -4.31332,2.62723 -5.09672,3.66906 -7.06578,9.39674 -1.21802,3.54304 -2.23052,8.3919 -2.25,10.77523 -0.0442,5.40477 -2.38663,5.27255 -2.84577,-0.16063 -0.1707,-2.01998 -0.70331,-3.6727 -1.18357,-3.6727 -0.48027,0 -1.01561,-1.2375 -1.18964,-2.75 -0.2845,-2.47256 -0.75551,-2.78153 -4.66863,-3.06249 -5.00845,-0.35961 -7.28067,1.19653 -10.2542,7.02265 -2.107,4.12831 -2.55262,13.87755 -0.90533,19.8069 1.41039,5.07662 10.44132,13.69204 15.43824,14.72793 4.4083,0.91387 5.72079,2.7561 2.65648,3.72867 -2.3214,0.73679 -9.34444,-3.00785 -13.57433,-7.23774 -3.71485,-3.71485 -7.15664,-10.00305 -7.94923,-14.52337 -1.07441,-6.12753 -0.81573,-15.36099 0.50085,-17.87797 3.23347,-6.1816 11.86641,-10.57639 17.56528,-8.94197 2.81122,0.80625 3.34369,0.49222 7.86942,-4.64098 6.38944,-7.24707 10.82382,-9.20167 20.93931,-9.22967 5.95089,-0.0165 8.97758,0.4831 12.107901,1.99846 7.03085,3.40358 12.48249,10.56903 13.86948,18.22958 0.50466,2.78728 1.16926,3.75 2.58875,3.75 3.36792,0 14.99862,6.1899 17.05376,9.07607 5.60518,7.87176 6.54604,17.13294 2.56682,25.26617 -2.4514,5.01048 -3.52571,6.08567 -8.68079,8.68795 -5.70201,2.87836 -7.06515,3.10956 -13.4402,2.27956 z m -41.500001,-4.84187 c 0,-3.48296 2.91339,-8.46788 4.94897,-8.46788 2.55342,0 2.57166,-0.18342 -0.53447,5.37405 -2.60383,4.65876 -4.4145,5.92774 -4.4145,3.09383 z m 46.662181,-1.13903 c -1.24585,-1.24585 -0.66127,-2.27796 2.09858,-3.70513 3.79877,-1.96443 7.49955,-8.73836 6.64158,-12.1568 -0.36493,-1.45399 -2.46434,-4.37402 -4.66536,-6.48896 -2.59542,-2.49392 -3.79062,-4.39581 -3.4008,-5.41165 1.00254,-2.61258 4.11816,-1.76698 7.47982,2.03008 2.85069,3.2199 3.184,4.2464 3.184,9.80572 0,5.05708 -0.46506,6.83969 -2.50617,9.60625 -2.76972,3.75415 -7.79884,7.3533 -8.83165,6.32049 z m -32.662181,-4.86097 c 0,-3.48296 2.91339,-8.46788 4.94897,-8.46788 1.12807,0 2.05103,0.39504 2.05103,0.87788 0,2.17458 -3.08196,7.93959 -4.54453,8.50083 -2.28059,0.87515 -2.45547,0.81027 -2.45547,-0.91083 z m 11.347281,-4.43335 c 0.25705,-1.63102 1.44033,-4.33189 2.62952,-6.00195 1.88543,-2.64785 2.34712,-2.85152 3.60729,-1.59135 1.26017,1.26017 1.16178,2.02834 -0.76875,6.00195 -1.44941,2.98333 -2.8564,4.55682 -4.07465,4.55682 -1.50112,0 -1.77044,-0.57318 -1.39341,-2.96547 z m -29.347281,0.41581 c 0,-1.7698 3.28395,-6.45034 4.52568,-6.45034 1.84346,0 1.83845,0.39516 -0.0514,4.04966 -1.28316,2.48135 -4.47432,4.19356 -4.47432,2.40068 z m 11.58877,-3.3067 c -1.65805,-2.68278 2.41756,-9.53731 4.45771,-7.49716 0.74769,0.74769 0.54756,2.13697 -0.67807,4.70714 -1.73524,3.63883 -2.77891,4.40924 -3.77964,2.79002 z m -27.83493,-1.58169 c -4.7101,-3.44411 -6.88863,-20.81328 -3.23035,-25.75517 2.32959,-3.147 5.84225,-4.9874 7.96466,-4.17295 1.59699,0.61282 2.13726,4.36617 0.62848,4.36617 -0.48585,0 -1.14443,0.7875 -1.4635,1.75 -0.31908,0.9625 -1.57192,2.97075 -2.7841,4.46278 -2.04738,2.52006 -2.1198,3.08881 -1.01936,8.00606 0.65152,2.91131 1.81324,6.50503 2.5816,7.98604 1.73167,3.3378 0.0978,5.38639 -2.67743,3.35707 z m 42.24616,-4.77852 c 0,-2.60846 3.357051,-9.82992 4.398751,-9.46229 1.44973,0.51162 0.85564,5.58482 -0.98705,8.42886 -1.578141,2.43573 -3.411701,2.99113 -3.411701,1.03343 z m -19,-4.82327 c 0,-0.57191 0.92617,-2.85529 2.05816,-5.07417 1.67277,-3.27889 2.32261,-3.81487 3.4704,-2.86229 1.20449,0.99964 1.1194,1.74603 -0.57849,5.07417 -1.81679,3.56119 -4.95007,5.37296 -4.95007,2.86229 z m 28.328261,-8.41778 c -0.67345,-0.74166 -0.97013,-2.93871 -0.69764,-5.1664 0.87027,-7.11477 -4.43343,-13.82061 -11.887551,-15.03025 -5.5566,-0.90171 -9.09794,1.05297 -12.18555,6.72591 -2.90873,5.34431 -3.19554,5.51913 -5.80489,3.53824 -4.69807,-3.56655 4.61819,-12.53865 14.56909,-14.03087 4.06577,-0.6097 5.40226,-0.34477 9.05263,1.79449 6.178501,3.62084 9.888551,9.67799 9.984281,16.30069 0.0824,5.70221 -1.1007,7.99329 -3.03037,5.86819 z"
       id="path3016"
       inkscape:export-filename="/Users/Frank/Documents/Arduino/WetterIcons/Regen.png"
       inkscape:export-xdpi="91.685966"
       inkscape:export-ydpi="91.685966" />
    <image
       y="899.48022"
       x="145.27898"
       id="image3028"
       height="71"
       width="100"
       xlink:href="file:///Users/Frank/Projects/Kueche/inkscape_pasted_image_20211226_231654.png" />
    <path
       style="fill:#000000"
       d="m 63.755375,969.32545 c 0,-0.43921 1.8,-2.67182 4,-4.96137 2.87577,-2.99282 4,-5.01683 4,-7.20144 0,-2.03435 0.49576,-3.03864 1.5,-3.03864 0.95677,0 1.5,0.96173 1.5,2.65561 0,1.46058 1.1479,4.16058 2.55089,6 1.40299,1.83941 2.24789,3.34439 1.87756,3.34439 -0.37034,0 -0.10411,0.68588 0.59161,1.52417 1.81546,2.18749 0.39878,3.03795 -2.48748,1.49327 -2.04481,-1.09435 -2.73858,-1.09137 -4.07471,0.0175 -1.31073,1.08781 -1.7589,1.09599 -2.40909,0.044 -0.56253,-0.91019 -1.00109,-0.96511 -1.4828,-0.18569 -0.77883,1.26018 -5.56598,1.52526 -5.56598,0.30821 z m 20.43465,-2.60581 c -0.36846,-1.46807 -0.40613,-3.98822 -0.0837,-5.60032 0.42137,-2.10685 0.1298,-3.18653 -1.03685,-3.83942 -0.96439,-0.5397 -1.37194,-1.56276 -1.00426,-2.52092 0.4952,-1.29046 1.13844,-1.41505 3.21997,-0.62365 1.72184,0.65464 3.23289,0.65086 4.46993,-0.0112 1.02783,-0.55008 2.57337,-1.00014 3.43453,-1.00014 2.54957,0 1.78517,2.57899 -1.16247,3.92202 -2.41785,1.10165 -2.53161,1.35307 -1,2.21021 2.37909,1.3314 2.18007,3.2192 -0.27179,2.57802 -1.49458,-0.39084 -2,-0.0307 -2,1.42518 0,1.07151 -0.87647,2.88898 -1.94771,4.03882 l -1.94771,2.09062 -0.66993,-2.66923 z m -22.43465,-4.61469 c 0,-2.76957 -0.22725,-2.9704 -2.75,-2.43031 l -2.75,0.58874 2.32628,-2.04175 c 2.55057,-2.23861 2.14893,-4.09763 -0.8853,-4.09763 -1.06754,0 -1.94098,-0.64844 -1.94098,-1.44098 0,-2.39952 1.47698,-2.5553 4.83945,-0.51046 2.62414,1.59584 3.54557,1.72794 5.13387,0.73603 2.67451,-1.67026 3.55856,-0.38205 1.62868,2.37325 -0.8811,1.25794 -1.602,3.44704 -1.602,4.86467 0,2.50959 -1.5866,4.97749 -3.2,4.97749 -0.44,0 -0.8,-1.35857 -0.8,-3.01905 z m 42.499995,-1.64828 c -2.88757,-0.77841 -5.445785,-3.31037 -4.867445,-4.8175 0.40181,-1.04709 1.047915,-1.02242 3.354165,0.12809 6.33134,3.15849 17.97302,-3.06631 20.03147,-10.71081 2.17926,-8.09316 -1.64676,-15.04145 -10.496,-19.06137 -7.424,-3.37249 -10.13181,-2.22644 -10.69768,4.52764 -0.22866,2.72929 -1.01718,4.33091 -2.669585,5.42243 l -2.34509,1.54906 0.69869,-5.59213 c 1.04042,-8.32719 -0.15491,-13.38091 -4.2324,-17.89421 -1.92987,-2.13613 -3.94952,-3.88387 -4.48811,-3.88387 -0.5386,0 -2.26407,-0.91486 -3.83439,-2.03303 -1.81725,-1.29399 -5.14499,-2.23364 -9.15437,-2.58491 -5.76029,-0.50466 -6.69096,-0.29914 -10.87748,2.40207 -5.00414,3.22876 -9.35088,9.65586 -10.43357,15.42708 -0.57795,3.08075 -2.94128,5.66904 -4.10957,4.50075 -0.18431,-0.18431 0.10249,-3.0074 0.63734,-6.27353 1.33983,-8.18194 1.33562,-8.2023 -1.84225,-8.90027 -5.23645,-1.15012 -8.02884,0.86568 -11.35212,8.19501 -2.65894,5.86417 -2.90958,7.13462 -1.93778,9.82209 0.6139,1.69771 1.11618,4.06729 1.11618,5.26574 0,1.19845 0.40598,2.179 0.90217,2.179 0.4962,0 1.37533,1.2375 1.95363,2.75 1.48532,3.88475 2.79614,5.18735 10.0894,10.02613 3.54486,2.35187 6.53705,4.90196 6.64931,5.66686 0.32716,2.22907 -4.26849,2.7758 -7.85314,0.93426 -4.56299,-2.34413 -15.64514,-14.05485 -16.3043,-17.22906 -0.30245,-1.45651 -1.03326,-4.56159 -1.62401,-6.90018 -1.32616,-5.24982 -0.64953,-9.74116 2.50584,-16.63339 2.20539,-4.81722 2.84264,-5.41597 6.80714,-6.39585 2.72123,-0.67259 6.07146,-0.76323 8.86641,-0.23987 4.37644,0.8195 4.61306,0.7284 9.16361,-3.52811 2.56914,-2.40312 5.88964,-4.67514 7.37888,-5.04892 4.04558,-1.01537 17.89061,0.30804 21.66258,2.07068 3.98286,1.86119 10.30248,6.38731 10.30248,7.37866 0,0.39247 0.86021,2.62118 1.91157,4.95269 2.041675,4.52763 2.549015,4.77008 11.588425,5.5379 7.54614,0.64098 9.95148,1.98208 13.89005,7.74439 3.26873,4.78229 3.36246,5.18266 2.61895,11.18681 -0.4241,3.42485 -0.82463,7.25473 -0.89005,8.51083 -0.0672,1.29103 -2.16229,4.29645 -4.81942,6.91362 -4.25928,4.19524 -5.19787,4.65535 -10,4.90207 -2.91474,0.14976 -6.19953,0.0297 -7.29953,-0.26685 z M 71.977885,950.5673 c -1.22238,-0.85619 -2.22251,-2.32108 -2.22251,-3.25531 0,-2.27093 -6.49027,-4.33229 -9.74464,-3.09498 -4.43199,1.68504 -6.02276,1.04312 -3.00126,-1.21108 l 2.75409,-2.05471 -2.25409,-1.88034 -2.2541,-1.88034 2.25,-0.0333 c 1.82594,-0.027 2.25,-0.59868 2.25,-3.03327 0,-1.96797 0.50391,-3 1.46482,-3 1.90363,0 3.53518,3.11348 3.53518,6.7462 0,3.89069 5.13385,8.00237 7.07354,5.66519 0.75345,-0.90785 2.49073,-1.39304 4.34128,-1.21245 2.55787,0.2496 3.14072,0.7862 3.41014,3.13949 0.32865,2.87078 -2.09406,6.66157 -4.25744,6.66157 -0.61738,0 -2.12264,-0.70052 -3.34501,-1.5567 z m 18.30545,-3.97327 c -1.90456,-0.80211 -3.79023,-0.94061 -5.25,-0.38561 -1.86419,0.70876 -2.27796,0.52847 -2.27796,-0.99254 0,-1.02224 0.88742,-2.09068 1.97204,-2.37432 1.40031,-0.36619 2.16217,-1.70465 2.62781,-4.61663 0.43038,-2.69142 1.17237,-4.10093 2.1588,-4.10093 1.15927,0 1.37313,0.80049 0.93506,3.5 -0.44049,2.71441 -0.2267,3.5 0.95249,3.5 0.83626,0 1.31669,0.5625 1.06762,1.25 -0.24906,0.6875 0.19275,1.99283 0.98181,2.90072 1.93757,2.22938 0.45721,2.84594 -3.16767,1.31931 z m -16.52796,-7.78589 c 0,-0.72372 -1.8,-2.32751 -4,-3.56398 -2.2,-1.23647 -4,-2.68346 -4,-3.21553 0,-1.81786 3.07158,-2.14983 4.86599,-0.52591 2.70088,2.44427 3.13401,2.03629 3.13401,-2.95204 0,-3.82585 0.28602,-4.51456 1.75,-4.21378 1.26967,0.26086 1.70953,1.24164 1.60255,3.57332 -0.16043,3.49674 0.70356,4.05603 2.64745,1.71378 1.32362,-1.59487 5,-2.07559 5,-0.6538 0,0.46541 -2.025,2.68912 -4.5,4.94157 -2.475,2.25245 -4.5,4.57166 -4.5,5.1538 0,0.58213 -0.45,1.05843 -1,1.05843 -0.55,0 -1,-0.59214 -1,-1.31586 z"
       id="path3032"
       inkscape:export-filename="/Users/Frank/Documents/Arduino/WetterIcons/Schnee.png"
       inkscape:export-xdpi="92.101158"
       inkscape:export-ydpi="92.101158" />
  </g>
</svg>
